<?xml version="1.0" standalone="no"?>
<!DOCTYPE svg PUBLIC "-//W3C//DTD SVG 20010904//EN"
 "http://www.w3.org/TR/2001/REC-SVG-20010904/DTD/svg10.dtd">
<svg version="1.0" xmlns="http://www.w3.org/2000/svg"
 width="1080.000000pt" height="1080.000000pt" viewBox="0 0 1080.000000 1080.000000"
 preserveAspectRatio="xMidYMid meet">
<metadata>
Created by potrace 1.14, written by Peter Selinger 2001-2017
</metadata>
<g transform="translate(0.000000,1080.000000) scale(0.100000,-0.100000)"
fill="#000000" stroke="none">
<path d="M5129 10786 c-2 -2 -50 -7 -107 -10 -206 -13 -449 -46 -673 -91 -68
-14 -135 -28 -149 -31 -14 -3 -43 -10 -65 -16 -22 -6 -44 -11 -50 -13 -96 -21
-326 -90 -415 -123 -8 -3 -17 -6 -20 -7 -21 -5 -89 -28 -105 -35 -11 -5 -61
-25 -111 -43 -49 -19 -110 -44 -135 -54 -24 -11 -64 -29 -89 -39 -60 -25 -454
-224 -460 -232 -3 -4 -18 -14 -35 -22 -16 -8 -66 -37 -110 -64 -44 -27 -92
-56 -107 -63 -16 -8 -28 -19 -28 -24 0 -5 -5 -9 -12 -9 -6 0 -26 -11 -44 -25
-18 -14 -37 -25 -42 -25 -6 0 -12 -3 -14 -8 -1 -4 -41 -34 -88 -67 -47 -32
-90 -64 -96 -69 -6 -6 -22 -18 -34 -26 -12 -8 -30 -22 -40 -30 -9 -8 -32 -26
-50 -40 -68 -52 -194 -160 -198 -172 -2 -4 -7 -8 -12 -8 -26 0 -393 -370 -535
-538 -16 -20 -38 -44 -47 -54 -10 -10 -18 -22 -18 -27 0 -5 -3 -11 -8 -13 -4
-1 -25 -25 -47 -53 -22 -27 -42 -52 -45 -55 -3 -3 -17 -21 -30 -40 -14 -19
-32 -44 -42 -54 -10 -11 -18 -23 -18 -26 0 -4 -9 -18 -21 -31 -11 -13 -46 -62
-77 -109 -30 -47 -59 -86 -64 -88 -4 -2 -8 -7 -8 -12 0 -10 -101 -173 -113
-181 -5 -3 -8 -9 -7 -13 0 -4 -15 -33 -34 -65 -20 -32 -36 -63 -36 -69 0 -6
-3 -12 -8 -14 -4 -1 -27 -41 -50 -88 -24 -47 -47 -92 -52 -100 -65 -115 -291
-660 -273 -660 3 0 1 -6 -4 -12 -6 -7 -13 -22 -16 -33 -3 -11 -19 -65 -37
-120 -17 -55 -33 -109 -36 -120 -2 -11 -10 -42 -19 -70 -15 -51 -40 -151 -49
-195 -3 -14 -12 -59 -21 -100 -20 -89 -20 -91 -30 -155 -5 -27 -9 -52 -10 -55
-3 -11 -18 -107 -20 -130 -2 -14 -6 -41 -9 -60 -4 -31 -10 -78 -21 -185 -27
-246 -27 -807 0 -1040 2 -16 6 -53 9 -81 12 -105 16 -140 21 -164 2 -14 7 -43
10 -65 3 -23 8 -52 10 -65 3 -14 8 -41 11 -60 3 -19 14 -78 25 -130 11 -52 22
-107 24 -122 3 -15 9 -38 15 -52 5 -15 8 -26 6 -26 -2 0 3 -21 11 -47 8 -27
16 -58 19 -71 2 -12 21 -75 40 -140 20 -64 37 -124 39 -132 2 -8 23 -67 46
-130 23 -63 48 -132 55 -153 8 -20 18 -45 23 -55 5 -9 13 -28 19 -42 30 -77
120 -275 153 -340 22 -41 39 -80 39 -87 0 -7 3 -13 8 -13 4 0 12 -10 17 -23
19 -39 79 -152 85 -157 3 -3 16 -25 29 -50 13 -25 37 -64 53 -87 15 -23 28
-44 28 -47 0 -4 16 -29 35 -56 19 -27 35 -52 35 -55 0 -3 9 -15 20 -27 11 -12
20 -28 20 -35 0 -7 4 -13 8 -13 5 0 18 -18 31 -40 12 -22 26 -40 32 -40 5 0 9
-5 9 -11 0 -6 9 -23 21 -37 11 -15 55 -72 97 -127 42 -55 79 -102 82 -105 3
-3 18 -21 34 -40 166 -204 464 -506 657 -665 80 -66 150 -124 184 -150 21 -16
43 -35 49 -40 6 -6 24 -19 41 -29 16 -11 34 -23 40 -28 33 -28 165 -118 173
-118 6 0 12 -4 14 -9 10 -26 338 -218 568 -334 69 -34 128 -66 131 -70 3 -5 9
-8 13 -8 10 1 39 -10 66 -24 14 -8 48 -23 75 -33 28 -11 68 -28 90 -38 22 -10
45 -19 51 -20 6 -1 27 -9 45 -17 108 -48 515 -179 627 -202 9 -2 67 -15 127
-29 186 -42 429 -85 588 -102 29 -3 66 -7 82 -9 95 -13 283 -19 530 -20 289 0
409 6 615 30 30 4 71 9 90 11 19 2 51 7 70 10 19 3 49 7 65 9 17 3 41 7 55 10
14 2 39 7 55 10 128 20 402 85 555 130 30 9 62 17 70 20 8 2 26 8 40 13 14 5
28 10 32 11 19 4 180 59 218 74 14 5 30 11 35 12 15 4 162 63 223 91 29 13 55
24 57 24 2 0 36 15 75 34 38 19 70 31 70 28 0 -4 4 -2 8 3 4 6 52 33 107 60
110 55 277 146 285 154 3 3 25 17 50 30 25 13 52 30 61 37 8 8 21 14 27 14 7
0 12 5 12 10 0 6 7 10 15 10 8 0 15 5 15 10 0 6 6 10 13 10 7 0 23 9 34 19 12
11 23 17 27 14 3 -3 8 2 12 11 3 9 10 16 16 16 12 0 182 120 186 131 2 5 8 9
13 9 7 0 178 129 199 150 3 3 32 27 65 55 137 114 485 444 485 461 0 2 19 24
43 49 66 71 89 97 137 155 25 30 47 57 50 60 3 3 28 34 55 70 28 36 52 67 55
70 3 3 27 34 52 70 26 36 51 70 55 75 5 6 51 75 103 155 52 80 101 155 108
165 7 11 15 28 18 37 4 10 10 18 14 18 4 0 10 8 13 18 4 9 27 53 52 97 40 70
198 382 201 395 0 3 13 32 28 65 15 33 43 101 63 150 19 50 41 104 48 120 32
75 157 468 170 535 2 8 11 44 20 80 9 36 19 76 22 90 2 14 11 54 19 90 8 36
17 81 20 100 2 19 9 55 14 80 5 25 12 66 15 91 3 25 8 57 10 70 2 13 6 37 9
52 3 15 8 62 11 105 4 42 9 86 11 96 25 130 24 901 -1 1035 -1 9 -6 48 -10 86
-4 39 -8 81 -10 95 -2 14 -7 43 -10 65 -3 22 -8 51 -10 65 -10 71 -38 222 -50
275 -8 33 -17 71 -20 85 -11 56 -24 109 -45 185 -12 44 -23 87 -25 95 -2 8 -4
15 -5 15 -1 0 -3 8 -5 18 -6 33 -117 362 -131 389 -8 15 -14 29 -14 30 2 4
-11 40 -25 73 -7 17 -21 50 -31 75 -9 25 -21 49 -26 55 -4 5 -8 15 -8 21 0 13
-122 276 -140 304 -6 8 -19 33 -30 55 -41 85 -165 298 -230 397 -22 32 -40 64
-40 69 0 5 -3 9 -8 9 -4 0 -16 16 -26 35 -11 19 -22 35 -26 35 -4 0 -12 10
-17 23 -9 19 -48 74 -136 191 -12 16 -37 48 -55 70 -17 23 -35 46 -40 51 -6
10 -85 103 -142 169 -176 203 -440 456 -675 645 -118 95 -112 90 -175 136 -30
21 -57 42 -60 45 -3 3 -13 10 -22 15 -9 6 -63 42 -120 80 -57 39 -115 77 -130
84 -16 8 -28 18 -28 23 0 4 -5 8 -11 8 -6 0 -23 8 -37 19 -76 54 -450 248
-617 320 -137 60 -150 65 -230 96 -38 14 -95 36 -125 48 -30 12 -60 22 -65 23
-10 1 -108 32 -235 74 -49 16 -257 71 -320 84 -14 3 -47 11 -75 16 -27 6 -61
13 -75 16 -14 2 -38 7 -55 11 -16 3 -39 7 -50 9 -11 1 -36 5 -55 9 -19 4 -46
9 -60 10 -14 2 -41 6 -60 9 -19 3 -60 8 -90 11 -30 4 -62 8 -70 10 -8 2 -55 7
-105 10 -49 4 -101 9 -115 12 -28 5 -666 14 -671 9z"/>
</g>
</svg>
