<?xml version="1.0" standalone="no"?>
<!DOCTYPE svg PUBLIC "-//W3C//DTD SVG 20010904//EN"
 "http://www.w3.org/TR/2001/REC-SVG-20010904/DTD/svg10.dtd">
<svg version="1.0" xmlns="http://www.w3.org/2000/svg"
 width="1920.000000pt" height="1920.000000pt" viewBox="0 0 1920.000000 1920.000000"
 preserveAspectRatio="xMidYMid meet">
<metadata>
Created by potrace 1.14, written by Peter Selinger 2001-2017
</metadata>
<g transform="translate(0.000000,1920.000000) scale(0.100000,-0.100000)"
fill="#000000" stroke="none">
<path d="M9238 19195 c-1 -2 -66 -6 -143 -9 -77 -3 -161 -8 -185 -10 -25 -3
-81 -8 -125 -11 -44 -3 -98 -8 -120 -10 -22 -2 -65 -7 -95 -10 -30 -3 -66 -7
-80 -9 -14 -2 -52 -7 -85 -11 -33 -4 -76 -9 -95 -11 -19 -2 -46 -6 -60 -9 -14
-3 -43 -7 -65 -10 -22 -3 -51 -7 -65 -10 -14 -3 -43 -8 -65 -10 -22 -3 -62
-10 -90 -15 -27 -5 -66 -12 -85 -15 -19 -3 -66 -12 -105 -20 -38 -8 -86 -17
-105 -20 -19 -3 -60 -12 -90 -19 -30 -8 -91 -21 -135 -31 -44 -9 -102 -23
-130 -30 -27 -7 -135 -37 -240 -65 -104 -28 -197 -53 -205 -55 -8 -2 -27 -8
-43 -14 -15 -6 -38 -13 -50 -15 -32 -6 -428 -141 -452 -153 -11 -6 -22 -11
-25 -11 -11 -1 -262 -97 -375 -143 -16 -7 -32 -13 -35 -14 -3 -1 -21 -9 -40
-17 -91 -41 -115 -51 -121 -52 -15 -2 -114 -52 -117 -58 -2 -5 -10 -8 -18 -8
-8 0 -22 -4 -32 -9 -67 -36 -311 -151 -320 -151 -7 0 -12 -4 -12 -9 0 -5 -15
-15 -32 -22 -18 -7 -89 -44 -157 -81 -69 -37 -129 -68 -133 -68 -4 0 -8 -4 -8
-10 0 -5 -5 -10 -10 -10 -21 0 -549 -318 -580 -350 -3 -3 -66 -45 -140 -95
-74 -49 -142 -95 -150 -102 -70 -54 -153 -113 -160 -113 -4 0 -10 -4 -12 -8
-1 -5 -30 -28 -63 -53 -33 -24 -73 -56 -90 -71 -16 -16 -36 -28 -43 -28 -7 0
-11 -4 -7 -9 3 -5 -3 -12 -13 -15 -10 -4 -33 -20 -50 -37 -18 -17 -32 -29 -32
-26 0 4 -10 -4 -23 -16 -13 -12 -34 -31 -48 -42 -31 -25 -140 -116 -155 -130
-6 -5 -42 -37 -80 -70 -235 -207 -543 -511 -734 -722 -110 -122 -170 -190
-192 -218 -13 -16 -30 -37 -38 -45 -8 -9 -33 -38 -55 -64 -22 -27 -45 -54 -50
-60 -6 -6 -24 -29 -40 -51 -17 -22 -38 -49 -49 -60 -10 -11 -25 -31 -34 -45
-9 -14 -25 -31 -34 -38 -10 -7 -18 -19 -18 -27 0 -7 -4 -15 -8 -17 -5 -1 -42
-48 -83 -103 -40 -55 -76 -102 -79 -105 -10 -10 -185 -265 -205 -298 -5 -9
-12 -19 -15 -22 -6 -5 -109 -164 -140 -215 -8 -13 -40 -64 -70 -112 -30 -48
-55 -90 -55 -93 0 -3 -13 -24 -28 -47 -15 -24 -27 -47 -27 -52 0 -5 -6 -16
-13 -23 -12 -12 -64 -103 -121 -213 -12 -22 -23 -42 -26 -45 -8 -8 -42 -84
-40 -89 1 -2 -3 -7 -8 -10 -12 -8 -142 -271 -142 -288 0 -7 -4 -13 -10 -13 -5
0 -10 -4 -10 -10 0 -5 -13 -37 -29 -72 -70 -148 -131 -291 -131 -304 0 -8 -4
-14 -10 -14 -5 0 -10 -8 -10 -18 0 -10 -3 -22 -7 -26 -5 -4 -8 -11 -9 -14 -1
-9 -12 -38 -29 -77 -7 -16 -17 -41 -23 -55 -5 -14 -15 -38 -22 -55 -7 -16 -20
-52 -30 -80 -83 -228 -106 -294 -137 -390 -20 -60 -37 -112 -38 -115 0 -3 -4
-11 -8 -17 -5 -7 -6 -13 -3 -13 3 0 -1 -17 -9 -37 -11 -31 -26 -80 -41 -135
-1 -5 -2 -9 -4 -10 -1 -2 -3 -10 -5 -18 -1 -8 -12 -46 -23 -85 -19 -65 -60
-221 -67 -255 -2 -8 -8 -33 -13 -55 -6 -22 -13 -51 -16 -65 -3 -14 -12 -53
-20 -87 -9 -34 -18 -75 -21 -90 -2 -15 -7 -38 -10 -50 -12 -53 -14 -62 -19
-94 -3 -19 -14 -79 -25 -134 -18 -91 -30 -157 -46 -270 -4 -22 -8 -51 -11 -65
-2 -14 -6 -45 -10 -70 -3 -25 -7 -56 -10 -70 -2 -14 -7 -49 -10 -79 -3 -30 -7
-62 -9 -71 -2 -9 -6 -56 -10 -106 -4 -49 -9 -91 -10 -94 -2 -3 -6 -46 -10 -95
-4 -50 -8 -110 -10 -135 -26 -310 -26 -1205 -1 -1371 3 -13 7 -67 11 -120 3
-53 7 -107 10 -120 2 -13 6 -60 10 -104 4 -44 9 -87 10 -96 3 -16 16 -116 20
-159 1 -14 5 -41 8 -60 4 -19 15 -93 27 -165 11 -71 22 -140 24 -151 2 -12 7
-38 10 -58 3 -21 13 -70 21 -109 8 -40 17 -87 20 -106 3 -19 7 -37 9 -40 2 -3
7 -22 10 -41 3 -19 19 -93 36 -165 40 -168 35 -150 55 -225 9 -36 19 -72 21
-80 2 -8 10 -40 19 -70 9 -30 18 -64 21 -75 8 -31 10 -37 24 -85 8 -25 14 -47
15 -50 1 -3 8 -25 15 -50 7 -25 14 -47 15 -50 18 -87 255 -728 329 -895 8 -16
28 -64 46 -105 18 -41 47 -107 66 -147 19 -40 34 -77 34 -83 0 -5 5 -10 12
-10 6 0 9 -2 6 -5 -3 -3 19 -54 48 -112 30 -58 54 -112 54 -120 0 -7 3 -13 8
-13 4 0 18 -24 31 -52 13 -29 27 -55 30 -58 3 -3 23 -39 44 -80 21 -41 42 -82
47 -90 6 -8 35 -60 66 -115 76 -135 89 -157 118 -204 15 -22 26 -45 26 -51 0
-5 5 -10 10 -10 6 0 10 -4 10 -9 0 -5 18 -37 40 -70 22 -33 40 -64 40 -70 0
-5 3 -11 8 -13 10 -4 62 -85 62 -97 0 -5 4 -11 8 -13 5 -1 36 -43 69 -93 33
-49 73 -108 89 -131 16 -23 44 -63 63 -90 37 -53 235 -316 263 -349 16 -20 53
-65 113 -140 17 -21 35 -43 40 -49 6 -6 30 -36 55 -66 25 -30 56 -67 70 -81
14 -15 45 -50 70 -80 143 -169 471 -502 721 -733 41 -37 91 -82 112 -100 21
-17 55 -47 76 -66 21 -19 57 -51 81 -70 24 -19 55 -45 67 -58 13 -12 26 -22
29 -22 3 0 11 -6 18 -13 15 -14 61 -52 126 -103 25 -19 52 -41 60 -47 8 -7 44
-35 80 -62 36 -27 67 -53 68 -57 2 -4 8 -8 13 -8 8 0 51 -31 139 -100 14 -11
29 -20 33 -20 4 0 17 -9 29 -20 30 -28 395 -270 407 -270 6 0 11 -4 11 -10 0
-5 6 -10 14 -10 8 0 21 -6 28 -13 7 -7 42 -31 78 -52 36 -22 67 -43 68 -48 2
-4 8 -5 13 -1 5 3 9 1 9 -4 0 -6 11 -13 25 -16 14 -4 25 -11 25 -16 0 -6 9
-10 19 -10 11 0 21 -4 23 -9 2 -5 28 -22 58 -39 30 -16 84 -46 120 -66 36 -20
90 -49 120 -64 30 -15 57 -30 60 -33 3 -3 29 -17 58 -30 28 -13 52 -27 52 -31
0 -5 6 -8 13 -8 8 0 62 -24 120 -54 58 -29 109 -51 112 -48 3 3 5 0 5 -6 0 -7
5 -12 10 -12 6 0 43 -15 83 -34 40 -19 106 -48 147 -66 41 -18 89 -38 105 -46
167 -74 808 -311 895 -329 3 -1 25 -8 50 -15 25 -7 47 -14 50 -15 3 -1 25 -7
50 -15 48 -14 54 -16 85 -24 11 -3 45 -12 75 -21 30 -9 62 -17 70 -19 8 -2 44
-12 80 -21 75 -20 57 -15 225 -55 72 -17 146 -33 165 -36 19 -3 38 -8 41 -10
4 -2 24 -6 45 -10 22 -3 55 -9 74 -14 19 -5 53 -12 75 -15 22 -4 50 -9 63 -11
38 -7 65 -11 137 -23 39 -7 84 -14 100 -17 17 -3 44 -7 60 -9 17 -2 46 -6 65
-9 36 -6 102 -15 155 -22 35 -4 85 -10 175 -19 36 -4 81 -8 100 -11 59 -7 198
-17 410 -31 58 -4 278 -7 490 -7 396 -1 588 6 835 29 33 3 85 7 115 10 30 3
71 7 90 10 19 2 63 7 98 11 35 3 73 7 85 10 12 2 46 7 76 10 30 3 64 8 75 10
12 2 41 6 66 9 25 4 68 10 95 15 28 5 66 12 85 14 19 3 46 8 60 11 14 3 39 7
55 10 44 7 87 14 115 21 14 3 36 8 50 10 24 4 119 25 210 45 25 6 54 13 65 15
47 9 168 38 270 66 61 17 115 31 120 33 92 20 432 126 620 192 121 43 273 99
312 114 15 6 39 16 53 21 14 6 39 16 55 23 39 17 68 28 77 29 3 1 10 4 14 9 4
4 16 7 26 7 10 0 18 5 18 10 0 6 6 10 14 10 13 0 156 61 304 131 35 16 67 29
72 29 6 0 10 5 10 10 0 6 6 10 13 10 17 0 280 130 288 142 3 5 9 9 13 9 7 -1
79 32 86 39 3 3 23 14 45 26 97 51 200 108 205 114 3 3 21 14 40 24 19 9 60
33 90 51 30 19 64 39 75 44 11 6 58 35 105 66 47 30 93 58 103 61 9 4 17 10
17 15 0 5 4 9 9 9 10 0 129 77 149 97 7 7 18 13 23 13 6 0 17 6 24 12 23 20
37 31 85 63 25 16 57 39 71 50 14 11 36 27 48 35 13 8 44 31 70 50 26 19 60
44 75 55 48 35 231 177 236 184 3 3 22 19 43 34 20 16 49 38 62 50 14 12 37
31 51 42 14 11 40 34 58 51 18 17 43 38 55 46 28 20 143 121 199 175 24 24 45
43 47 43 8 0 293 280 425 417 148 155 306 329 352 388 13 16 30 37 38 45 8 9
33 38 55 64 22 27 45 54 50 60 6 6 24 29 40 51 17 22 38 49 49 60 10 11 25 31
34 45 9 14 25 31 34 38 10 7 18 19 18 27 0 7 4 15 8 17 5 2 42 48 83 103 40
55 76 102 79 105 10 10 185 265 205 298 6 9 12 19 15 22 6 5 109 164 140 215
8 13 40 64 70 112 30 48 55 90 55 93 0 3 13 24 28 47 15 24 27 45 27 48 0 3
15 29 33 58 18 29 41 68 51 87 9 19 23 44 30 55 23 38 59 110 55 110 -2 0 5
14 17 30 11 17 26 45 33 63 8 17 17 32 22 32 5 0 9 5 9 12 0 9 115 253 151
320 5 10 9 24 9 32 0 8 3 16 7 18 7 3 57 102 59 117 0 3 8 23 17 44 10 20 24
54 34 75 9 20 17 39 18 42 1 3 7 19 14 35 53 128 142 363 139 368 -1 1 5 13
12 27 15 27 149 421 156 457 2 12 9 35 15 50 6 16 12 35 14 43 2 8 27 101 55
205 28 105 58 213 65 240 7 28 21 86 30 130 10 44 23 105 31 135 7 30 16 71
19 90 3 19 14 78 25 130 10 52 22 115 25 140 3 25 8 52 10 60 2 8 6 31 9 50 3
19 12 78 20 130 16 101 25 163 31 220 2 19 6 51 9 70 2 19 7 64 11 100 6 65 8
84 20 215 3 39 7 88 9 110 21 229 29 963 13 1220 -12 185 -25 356 -32 405 -2
14 -6 61 -10 105 -4 44 -9 87 -10 96 -3 16 -16 116 -20 159 -1 14 -5 41 -8 60
-4 19 -15 94 -27 165 -11 72 -22 140 -24 151 -2 12 -7 39 -10 60 -11 66 -77
388 -86 419 -5 17 -11 41 -14 55 -3 14 -7 35 -10 48 -4 12 -8 30 -10 40 -13
57 -88 337 -92 344 -3 5 -7 20 -10 33 -2 14 -16 62 -30 108 -15 45 -27 87 -28
92 -9 47 -159 474 -221 630 -4 11 -9 25 -11 30 -5 18 -62 155 -103 247 -11 26
-21 50 -21 52 0 5 -31 73 -101 224 -22 45 -39 87 -39 92 0 6 -4 10 -10 10 -5
0 -10 6 -10 14 0 13 -140 293 -208 416 -17 30 -41 75 -54 100 -13 25 -25 47
-28 50 -3 3 -11 16 -17 30 -7 14 -24 43 -38 65 -14 22 -28 46 -32 54 -18 38
-187 306 -194 309 -5 2 -9 8 -9 13 0 6 -18 37 -40 70 -22 33 -40 64 -40 69 0
5 -3 10 -7 12 -5 2 -33 39 -63 83 -30 44 -58 82 -62 83 -4 2 -8 8 -8 13 0 6
-4 15 -10 22 -5 7 -71 95 -146 196 -75 101 -145 194 -155 205 -16 20 -47 58
-114 141 -16 21 -35 43 -40 49 -6 6 -30 36 -55 66 -25 30 -56 67 -70 81 -14
15 -45 50 -70 80 -141 166 -475 507 -706 719 -62 56 -169 152 -214 189 -14 12
-45 39 -70 61 -43 36 -83 70 -105 87 -76 60 -171 139 -173 145 -2 5 -8 8 -13
8 -8 0 -71 48 -147 111 -12 10 -25 19 -27 19 -5 0 -60 41 -135 100 -14 11 -29
20 -33 20 -4 0 -17 9 -29 20 -30 28 -395 270 -407 270 -6 0 -11 5 -11 10 0 6
-6 10 -14 10 -8 0 -21 6 -28 13 -7 7 -42 31 -78 52 -36 22 -67 43 -68 48 -2 4
-8 5 -13 1 -5 -3 -9 -1 -9 4 0 6 -11 13 -25 16 -14 4 -25 11 -25 16 0 6 -9 10
-20 10 -11 0 -20 3 -20 8 0 4 -21 19 -47 32 -27 14 -50 27 -53 30 -3 3 -25 15
-50 28 -25 13 -70 37 -100 54 -123 68 -403 208 -416 208 -8 0 -14 5 -14 10 0
6 -4 10 -10 10 -5 0 -47 17 -92 39 -151 70 -219 101 -224 101 -2 0 -26 10 -52
21 -92 41 -229 98 -247 103 -5 2 -19 7 -30 11 -48 19 -194 74 -240 89 -27 10
-57 20 -65 23 -8 4 -17 7 -20 8 -3 1 -12 4 -20 7 -67 26 -463 151 -516 163
-11 2 -44 11 -74 20 -30 9 -65 18 -77 21 -12 2 -35 9 -50 15 -16 6 -29 10 -31
10 -3 -2 -51 8 -92 19 -36 9 -149 37 -185 46 -11 2 -36 7 -55 10 -19 3 -51 9
-70 14 -46 12 -193 42 -277 56 -13 2 -33 6 -45 8 -13 2 -54 9 -93 15 -38 7
-83 14 -100 17 -16 3 -43 7 -60 9 -16 2 -46 6 -65 9 -35 6 -102 15 -150 21
-14 2 -52 6 -85 10 -33 3 -76 7 -95 10 -19 3 -62 7 -95 10 -33 4 -76 8 -95 10
-19 2 -84 6 -145 10 -60 4 -130 9 -155 12 -56 5 -887 13 -892 8z"/>
</g>
</svg>
