<?xml version="1.0" standalone="no"?>
<!DOCTYPE svg PUBLIC "-//W3C//DTD SVG 20010904//EN"
 "http://www.w3.org/TR/2001/REC-SVG-20010904/DTD/svg10.dtd">
<svg version="1.0" xmlns="http://www.w3.org/2000/svg"
 width="1000.000000pt" height="1000.000000pt" viewBox="0 0 1000.000000 1000.000000"
 preserveAspectRatio="xMidYMid meet">
<metadata>
Created by potrace 1.14, written by Peter Selinger 2001-2017
</metadata>
<g transform="translate(0.000000,1000.000000) scale(0.100000,-0.100000)"
fill="#000000" stroke="none">
<path d="M4738 9995 c-2 -2 -52 -6 -113 -9 -60 -4 -119 -9 -130 -11 -11 -2
-48 -7 -82 -10 -34 -3 -68 -7 -75 -9 -7 -3 -35 -7 -63 -10 -64 -7 -296 -49
-333 -60 -9 -3 -29 -7 -45 -10 -15 -3 -35 -7 -45 -10 -9 -3 -28 -7 -42 -10
-47 -9 -65 -14 -155 -41 -49 -14 -94 -28 -100 -29 -101 -27 -386 -128 -430
-153 -16 -9 -32 -17 -35 -16 -8 1 -30 -7 -90 -34 -30 -14 -57 -26 -60 -26 -3
-1 -59 -28 -125 -61 -66 -33 -123 -59 -127 -58 -5 1 -8 -2 -8 -8 0 -5 -5 -10
-10 -10 -9 0 -204 -108 -275 -153 -109 -68 -233 -148 -245 -159 -8 -7 -16 -12
-18 -10 -2 2 -12 -6 -21 -17 -10 -12 -21 -21 -25 -21 -4 0 -12 -5 -19 -10 -7
-6 -43 -34 -82 -62 -81 -60 -218 -173 -319 -261 -166 -147 -486 -483 -486
-510 0 -5 -4 -5 -10 -2 -5 3 -10 1 -10 -5 0 -6 -6 -17 -13 -24 -14 -15 -48
-58 -109 -136 -24 -30 -46 -56 -50 -58 -5 -2 -8 -9 -8 -16 0 -7 -11 -23 -25
-36 -14 -13 -25 -27 -25 -31 0 -4 -34 -56 -75 -115 -42 -59 -83 -122 -91 -141
-9 -18 -20 -33 -25 -33 -5 0 -9 -4 -9 -9 0 -5 -20 -44 -45 -85 -25 -42 -45
-81 -45 -85 0 -5 -4 -11 -8 -13 -16 -6 -238 -465 -246 -508 -1 -3 -5 -11 -10
-18 -8 -13 -115 -297 -119 -317 -2 -5 -6 -16 -10 -22 -5 -7 -6 -13 -3 -13 3 0
-1 -17 -8 -37 -35 -91 -126 -446 -141 -549 -4 -21 -8 -47 -11 -56 -3 -9 -6
-25 -8 -35 -7 -37 -19 -119 -21 -138 -1 -11 -5 -36 -8 -55 -3 -19 -9 -62 -12
-95 -4 -33 -8 -71 -11 -85 -25 -155 -25 -845 0 -1000 2 -14 7 -52 11 -85 9
-81 15 -126 20 -150 2 -11 7 -42 10 -70 4 -27 9 -58 11 -67 3 -10 7 -30 10
-45 21 -129 100 -452 134 -548 4 -11 17 -51 29 -90 25 -80 96 -275 116 -320 7
-16 25 -59 40 -95 42 -103 151 -325 217 -445 66 -119 212 -356 231 -378 7 -7
19 -24 27 -39 17 -29 44 -67 78 -108 12 -15 22 -31 22 -34 0 -3 9 -16 19 -28
11 -13 58 -72 106 -133 48 -60 97 -119 109 -131 11 -12 46 -50 76 -85 30 -35
114 -122 186 -194 118 -117 160 -156 298 -275 23 -19 43 -37 46 -41 3 -3 57
-44 120 -92 63 -48 120 -91 126 -96 23 -19 263 -181 268 -181 3 0 25 -13 49
-30 25 -16 48 -30 51 -30 4 0 12 -5 19 -11 26 -24 527 -284 527 -274 0 3 53
-19 155 -65 30 -13 211 -79 280 -102 84 -28 217 -69 235 -73 8 -1 35 -8 60
-15 25 -7 52 -13 60 -15 8 -2 51 -12 95 -23 44 -11 127 -30 185 -41 104 -20
124 -23 210 -36 77 -11 93 -13 150 -20 30 -4 69 -8 85 -10 212 -26 852 -26
1005 0 14 2 52 6 86 9 33 3 67 8 75 10 8 3 37 7 64 10 28 3 61 8 75 10 14 3
41 7 60 10 19 3 58 10 85 15 28 6 62 13 77 15 15 3 31 7 35 9 5 3 24 8 43 11
19 3 71 15 115 26 44 12 88 23 98 25 125 27 514 165 711 252 87 39 400 195
406 203 3 4 20 13 38 21 17 8 32 17 32 21 0 5 4 8 10 8 5 0 44 21 85 47 42 27
84 53 94 58 44 26 157 101 170 113 13 12 66 49 110 77 9 6 18 12 21 15 3 3 30
25 60 48 107 83 105 82 190 155 127 110 180 159 289 268 104 103 193 199 256
272 32 38 112 134 125 151 8 10 27 33 43 51 15 18 27 38 27 44 0 6 3 11 8 11
4 0 18 17 32 38 14 20 27 39 31 42 10 9 179 258 179 264 0 4 5 12 10 19 12 13
66 104 110 182 51 92 124 227 125 235 1 3 22 48 47 100 51 106 131 296 172
410 15 41 35 93 43 115 8 22 17 49 19 59 2 10 9 35 16 55 7 20 13 38 13 41 1
3 7 25 15 50 7 25 14 50 16 55 1 6 12 46 23 91 12 45 24 92 27 105 11 50 14
65 20 89 22 91 68 366 79 470 3 30 8 69 10 85 27 193 27 788 0 1010 -2 17 -6
57 -10 89 -3 32 -7 62 -9 65 -2 3 -7 35 -10 71 -4 36 -9 72 -11 80 -2 8 -7 31
-9 50 -3 19 -8 46 -11 60 -3 14 -8 37 -10 52 -2 15 -16 77 -30 138 -15 61 -28
118 -30 128 -2 9 -4 17 -5 17 -1 0 -3 7 -5 16 -1 9 -11 43 -20 75 -9 33 -19
66 -20 74 -6 24 -92 282 -106 315 -7 17 -13 32 -14 35 -1 3 -7 18 -13 33 -7
16 -12 34 -12 41 0 6 -4 16 -8 22 -5 5 -28 56 -52 114 -49 117 -173 371 -201
411 -10 14 -16 28 -13 31 2 3 -2 11 -11 18 -8 7 -15 16 -15 21 0 8 -115 200
-167 278 -13 20 -29 44 -36 55 -6 10 -18 24 -24 32 -7 7 -13 15 -13 19 0 5
-150 212 -181 249 -5 6 -17 21 -27 32 -42 52 -99 120 -117 140 -11 12 -47 53
-80 90 -76 86 -272 282 -354 354 -34 30 -75 66 -90 80 -27 25 -54 47 -166 137
-33 26 -61 51 -63 56 -2 4 -10 7 -17 7 -7 0 -15 3 -17 8 -5 11 -73 60 -208
149 -69 46 -129 87 -135 91 -52 42 -635 350 -635 336 0 -2 -21 6 -47 19 -27
13 -93 41 -148 61 -55 21 -109 41 -120 46 -58 24 -165 59 -165 54 0 -4 -6 -2
-12 3 -7 5 -49 20 -93 32 -44 13 -87 26 -95 29 -8 3 -19 6 -25 7 -5 2 -66 16
-135 33 -133 33 -154 37 -238 52 -30 5 -61 11 -70 14 -15 4 -47 9 -139 21 -13
2 -42 6 -65 10 -67 10 -87 13 -173 20 -44 4 -93 9 -110 12 -35 4 -642 12 -647
8z"/>
</g>
</svg>
